<?xml version="1.0" encoding="UTF-8"?>
<svg width="120px" height="13px" viewBox="0 0 120 13" version="1.1" xmlns="http://www.w3.org/2000/svg" xmlns:xlink="http://www.w3.org/1999/xlink">
  <defs>
    <polygon id="path-1" points="0.0118181818 0.0823333333 119.295879 0.0823333333 119.295879 12.9881818 0.0118181818 12.9881818"></polygon>
  </defs>
  <g id="Symbols" stroke="none" stroke-width="1" fill="none" fill-rule="evenodd">
    <g id="Blackmores-nav" transform="translate(-50.000000, -18.000000)">
      <g id="Blackmores-LOGO-BLACK" transform="translate(50.000000, 18.000000)">
        <path d="M119.484576,2.31380303 C119.282879,2.51668182 119.03903,2.61812121 118.752045,2.61812121 C118.464864,2.61812121 118.221015,2.51668182 118.020894,2.31380303 C117.821364,2.1105303 117.7215,1.86530303 117.7215,1.57693939 C117.7215,1.29133333 117.821364,1.04748485 118.021879,0.845393939 C118.224561,0.642515152 118.467227,0.541075758 118.752045,0.541075758 C119.037848,0.541075758 119.2815,0.642515152 119.484576,0.845393939 C119.684894,1.04748485 119.784364,1.29133333 119.784364,1.57693939 C119.784364,1.86530303 119.684894,2.1105303 119.484576,2.31380303 Z M119.602955,0.72780303 C119.368364,0.494393939 119.084924,0.377393939 118.752045,0.377393939 C118.42153,0.377393939 118.140258,0.494393939 117.905864,0.72780303 C117.671273,0.96219697 117.55447,1.24484848 117.55447,1.57556061 C117.55447,1.90962121 117.670091,2.19365152 117.9035,2.42824242 C118.13553,2.66401515 118.419167,2.78180303 118.752045,2.78180303 C119.084924,2.78180303 119.368364,2.66401515 119.602955,2.42824242 C119.837348,2.19266667 119.954348,1.90824242 119.954348,1.57556061 C119.954348,1.24406061 119.837348,0.961212121 119.602955,0.72780303 Z" id="Fill-1" fill="#1A1919"></path>
        <g id="Group-12">
          <mask id="mask-2" fill="white">
            <use xlink:href="#path-1"></use>
          </mask>
          <g id="Clip-3"></g>
          <path d="M118.93247,1.52001515 C118.882045,1.53951515 118.808182,1.54916667 118.709697,1.54916667 L118.499924,1.54916667 L118.499924,1.07131818 L118.699258,1.07131818 C118.828273,1.07131818 118.921833,1.0874697 118.98053,1.12056061 C119.03903,1.15345455 119.068379,1.2174697 119.068379,1.31339394 C119.068379,1.4150303 119.022682,1.48377273 118.93247,1.52001515 Z M119.275985,2.14677273 C119.273424,2.11171212 119.272242,2.07901515 119.272242,2.04887879 L119.272242,1.95216667 C119.272242,1.88559091 119.248803,1.81763636 119.200545,1.74790909 C119.152879,1.67837879 119.077833,1.63524242 118.974424,1.61869697 C119.056364,1.6055 119.119985,1.58422727 119.165682,1.55487879 C119.251364,1.49933333 119.293515,1.41266667 119.293515,1.29448485 C119.293515,1.12863636 119.225364,1.01675758 119.089848,0.960227273 C119.013424,0.928318182 118.892879,0.912757576 118.729591,0.912757576 L118.268091,0.912757576 L118.268091,2.23166667 L118.499924,2.23166667 L118.499924,1.71284848 L118.683894,1.71284848 C118.807,1.71284848 118.892879,1.72683333 118.941924,1.75519697 C119.025045,1.80424242 119.066212,1.90509091 119.066212,2.05754545 L119.066212,2.16154545 L119.070939,2.20428788 C119.072909,2.20940909 119.072909,2.21433333 119.074288,2.21906061 C119.075273,2.22339394 119.076455,2.22733333 119.077833,2.23166667 L119.295879,2.23166667 L119.287606,2.21551515 C119.2815,2.20468182 119.278348,2.18183333 119.275985,2.14677273 Z" id="Fill-2" fill="#1A1919" mask="url(#mask-2)"></path>
          <path d="M5.824,11.9170606 C4.368,11.9170606 4.18127273,11.0025303 4.18127273,9.5465303 L4.18127273,7.34381818 C4.18127273,6.59710606 4.18127273,6.57839394 5.20787879,6.57839394 C7.00010606,6.57839394 7.93334848,7.71707576 7.93334848,9.34109091 C7.93334848,10.8534242 7.20534848,11.9170606 5.824,11.9170606 Z M4.18127273,2.15465152 C4.18127273,1.33328788 4.19978788,1.18359091 5.07728788,1.18359091 C6.36527273,1.18359091 7.37336364,1.98643939 7.37336364,3.61025758 C7.37336364,4.73042424 6.77615152,5.7570303 5.17045455,5.7570303 C4.19978788,5.7570303 4.18127273,5.71980303 4.18127273,5.2344697 L4.18127273,2.15465152 Z M8.08265152,6.07454545 C7.91483333,6.03712121 7.8214697,5.98098485 7.8214697,5.92543939 C7.8214697,5.83168182 8.008,5.7570303 8.19472727,5.71980303 C8.77342424,5.5705 10.0986364,4.95437879 10.0986364,3.38669697 C10.0986364,2.28504545 9.61330303,1.50110606 8.81084848,1.01557576 C7.98928788,0.530439394 6.79486364,0.325 5.00263636,0.325 C3.13595455,0.325 1.77331818,0.399848485 0.354742424,0.493212121 C0.0744545455,0.511727273 0.112075758,1.07190909 0.280090909,1.16527273 L0.783939394,1.23972727 C1.56787879,1.33328788 1.60530303,1.53833333 1.60530303,3.42392424 L1.60530303,10.0131515 C1.60530303,11.6931061 1.4930303,11.823697 0.653348485,11.9919091 L0.112075758,12.1037879 C-0.0374242424,12.1599242 -0.0374242424,12.6450606 0.112075758,12.7573333 C1.17590909,12.7201061 2.09043939,12.701197 3.00536364,12.701197 C3.54663636,12.701197 4.25612121,12.7760455 4.92798485,12.7760455 C6.06666667,12.7760455 7.46692424,12.7201061 8.64263636,12.3090303 C9.81874242,11.8983485 10.8453485,10.8906515 10.8266364,9.17327273 C10.8081212,7.3625303 9.55736364,6.39186364 8.08265152,6.07454545 Z" id="Fill-4" fill="#1A1919" mask="url(#mask-2)"></path>
          <path d="M20.3585909,9.62118182 C19.2573333,11.7864697 18.7345758,11.8426061 17.0359091,11.8426061 C15.6730758,11.8426061 15.3372424,11.6931061 15.0945758,11.3761818 C14.8517121,11.0771818 14.7770606,10.4797727 14.7770606,9.6024697 L14.7770606,3.06898485 C14.7770606,1.33328788 14.8889394,1.20230303 15.7290152,1.05319697 L16.2145455,0.978348485 C16.3640455,0.866272727 16.3640455,0.437075758 16.2145455,0.325 C15.2811061,0.362621212 14.3476667,0.380939394 13.4518485,0.380939394 C12.5558333,0.380939394 11.6225909,0.362621212 10.6519242,0.325 C10.4279697,0.437075758 10.4279697,0.866272727 10.6145,0.978348485 L11.1557727,1.05319697 C11.9958485,1.20230303 12.1079242,1.33328788 12.1079242,3.06898485 L12.1079242,10.0131515 C12.1079242,11.7492424 11.9958485,11.8798333 11.1557727,12.0102273 L10.4464848,12.1037879 C10.2969848,12.2156667 10.3342121,12.6450606 10.5024242,12.7573333 C11.6596212,12.7201061 12.5930606,12.701197 13.4518485,12.701197 L15.9531667,12.701197 C17.4838182,12.701197 19.2758485,12.7201061 20.2652273,12.7573333 C20.5264091,12.2532879 20.9747121,10.7041212 21.0678788,9.73306061 C20.9372879,9.50930303 20.5078939,9.43445455 20.3585909,9.62118182" id="Fill-5" fill="#1A1919" mask="url(#mask-2)"></path>
          <path d="M27.358303,7.49312121 L25.7342879,7.49312121 C25.2676667,7.49312121 25.1553939,7.43718182 25.3421212,6.93333333 L25.8089394,5.53307576 C26.0888333,4.67428788 26.3876364,3.89034848 26.5741667,3.47966667 C26.7421818,3.8720303 26.9848485,4.63706061 27.2462273,5.44010606 L27.7317576,6.95184848 C27.8995758,7.43718182 27.787697,7.49312121 27.358303,7.49312121 Z M32.8464697,11.9919091 C32.1555,11.8613182 31.9874848,11.4506364 31.5957121,10.3304697 L29.0567727,3.01324242 C28.5901515,1.68783333 28.3663939,0.997257576 28.2168939,0.455787879 C28.1420455,0.17569697 28.0303636,0.0823333333 27.787697,0.0823333333 C27.7502727,0.0823333333 27.0595,0.997257576 26.1636818,1.2025 C26.2194242,1.74357576 25.8837879,2.39692424 25.4356818,3.5730303 L23.7555303,8.12795455 C23.2516818,9.47187879 22.9343636,10.3678939 22.5981364,11.1144091 C22.2993333,11.8426061 21.9073636,11.9919091 21.4596515,12.0480455 L20.9556061,12.1037879 C20.8248182,12.2532879 20.806303,12.6450606 21.0115455,12.7575303 C21.8701364,12.7575303 22.2993333,12.701197 22.9343636,12.701197 C23.7181061,12.7201061 24.4648182,12.7201061 25.1179697,12.7575303 C25.3048939,12.6639697 25.2676667,12.2345758 25.1553939,12.1037879 L24.5956061,12.0108182 C24.0728485,11.9170606 23.9235455,11.8053788 23.9235455,11.6931061 C23.9235455,11.543803 23.9420606,11.3945 24.0543333,11.0214394 L24.7449091,8.85575758 C24.8569848,8.50101515 24.9127273,8.48230303 25.3606364,8.48230303 L27.4514697,8.48230303 C28.1050152,8.48230303 28.2543182,8.51992424 28.3476818,8.8185303 L28.8517273,10.4238333 C29.0756818,11.1144091 29.2062727,11.5625152 29.2062727,11.6931061 C29.2062727,11.8053788 29.1316212,11.9361667 28.7024242,12.0108182 L28.1050152,12.1037879 C27.8995758,12.2532879 27.937,12.6450606 28.1420455,12.7575303 C29.0008333,12.7201061 29.7290303,12.701197 30.6622727,12.701197 C31.6331364,12.701197 32.6410303,12.7201061 33.5370455,12.7575303 C33.7050606,12.6450606 33.6676364,12.1973485 33.5555606,12.1037879 L32.8464697,11.9919091 Z" id="Fill-6" fill="#1A1919" mask="url(#mask-2)"></path>
          <path d="M43.0380758,9.24772727 C42.5342273,10.5173939 41.4889091,12.1414091 39.2300606,12.1414091 C36.9901212,12.1414091 34.8431515,10.1437424 34.8431515,6.42889394 C34.8431515,2.71424242 37.0647727,0.941121212 39.1365,0.941121212 C40.9474394,0.941121212 42.1422576,1.87436364 42.6461061,3.61045455 C42.7768939,3.7784697 43.2807424,3.70362121 43.355197,3.47966667 C43.1873788,2.39692424 43.1314394,0.903893939 43.1314394,0.567666667 C42.5714545,0.530439394 41.1901061,0.0823333333 39.286,0.0823333333 C37.3448636,0.0823333333 35.4405606,0.642515152 34.1153485,1.74357576 C32.8273636,2.80760606 31.8565,4.41310606 31.8565,6.6904697 C31.8565,9.00506061 32.883303,10.5546212 34.2276212,11.5812273 C35.5526364,12.570803 37.4193182,13 39.2487727,13 C40.7045758,13 42.0299848,12.5891212 43.0380758,12.3090303 C43.2994545,11.8798333 43.6167727,10.7596667 43.7475606,9.37831818 C43.6354848,9.15436364 43.1873788,9.09862121 43.0380758,9.24772727" id="Fill-7" fill="#1A1919" mask="url(#mask-2)"></path>
          <path d="M72.6617273,12.0291364 C71.9337273,11.9170606 71.8592727,11.4878636 71.8218485,10.6290758 C71.7099697,8.27725758 71.6725455,6.26087879 71.6725455,2.41583333 C71.6725455,1.42625758 72.046,1.22101515 72.8110303,1.07190909 L73.3525,0.978348485 C73.501803,0.791818182 73.501803,0.436878788 73.2965606,0.32519697 C72.6245,0.362621212 71.7657121,0.380939394 71.1497879,0.380939394 C70.589803,0.380939394 70.011303,0.399454545 69.1523182,0.32519697 C68.7416364,1.9305 68.3498636,2.80760606 67.4351364,4.73042424 L66.4831818,6.78383333 C65.9791364,7.88509091 65.6803333,8.46418182 65.4378636,8.91189394 C65.1766818,8.44507576 64.616697,7.38124242 64.4299697,7.00759091 L63.1977273,4.37568182 C62.3763636,2.62087879 61.7232121,1.48239394 61.7232121,0.32519697 C61.0509545,0.380939394 60.5098788,0.380939394 59.8935606,0.380939394 C58.9788333,0.380939394 58.1759848,0.362621212 57.5415455,0.32519697 C57.336303,0.380939394 57.336303,0.828848485 57.4856061,0.978348485 L57.8964848,1.053 C58.643,1.22101515 59.0536818,1.46368182 59.0536818,2.52790909 C59.0536818,3.53580303 58.9973485,5.04774242 58.9228939,6.2985 C58.8106212,8.07181818 58.7178485,9.6960303 58.6244848,10.6103636 C58.5124091,11.7679545 58.2809697,11.9401061 57.5362273,12.064197 C57.355803,12.0941364 57.0719697,12.1240758 56.7089545,12.0551364 C56.2647879,11.9708333 55.8245606,11.8051818 55.3203182,11.1333182 C54.0514394,9.4529697 52.9499848,7.66133333 52.0167424,6.26107576 C51.4565606,5.421 51.3444848,5.19704545 51.3444848,5.10368182 C51.3444848,5.0290303 51.4006212,4.87992424 51.5871515,4.67428788 L52.4459394,3.70362121 C53.6779848,2.34078788 54.4619242,1.61298485 55.2086364,1.31437879 C55.6006061,1.14656061 56.1605909,1.053 56.8139394,0.978545455 C56.9632424,0.829045455 56.9447273,0.399848485 56.7205758,0.325 C55.9738636,0.362621212 55.152697,0.380939394 54.4619242,0.380939394 C53.7900606,0.380939394 53.0990909,0.362621212 52.1473333,0.325 C51.9044697,0.399848485 51.8670455,0.847560606 52.0724848,0.978545455 L52.5018788,1.053 C52.7445455,1.10913636 52.819197,1.22121212 52.819197,1.29606061 C52.819197,1.37051515 52.7445455,1.53833333 52.5763333,1.781 C51.9791212,2.6585 51.0645909,3.75975758 50.0752121,4.95437879 C49.7766061,5.3280303 49.0298939,6.03731818 48.6377273,6.03731818 C48.4139697,6.03731818 48.3018939,5.9624697 48.3018939,5.34634848 L48.3018939,3.06898485 C48.3018939,1.33348485 48.4139697,1.20230303 49.2540455,1.053 L49.7766061,0.978545455 C49.9444242,0.866469697 49.9444242,0.437075758 49.7766061,0.325 C48.7872273,0.362621212 47.8537879,0.380939394 46.9577727,0.380939394 C46.0245303,0.380939394 45.0912879,0.362621212 44.1578485,0.325 C43.9526061,0.437075758 43.9526061,0.866469697 44.1578485,0.978545455 L44.6804091,1.053 C45.5204848,1.20230303 45.6325606,1.33348485 45.6325606,3.06898485 L45.6325606,10.0131515 C45.6325606,11.7492424 45.5204848,11.8798333 44.6804091,12.0291364 L44.1578485,12.1037879 C44.0083485,12.2158636 44.0083485,12.6452576 44.1578485,12.7575303 C45.1470303,12.7201061 46.1178939,12.701 46.9577727,12.701 C47.8537879,12.701 48.7872273,12.7201061 49.7766061,12.7575303 C49.9259091,12.6452576 49.9259091,12.2345758 49.7766061,12.1037879 L49.2540455,12.0291364 C48.4139697,11.8798333 48.3018939,11.7492424 48.3018939,10.0131515 L48.3018939,8.05330303 C48.3018939,7.04540909 48.3204091,6.78383333 48.75,6.78383333 C49.1604848,6.78383333 49.477803,7.23193939 50.1498636,8.25854545 L51.1392424,9.77028788 C51.3259697,10.0503788 52.1099091,11.2641061 52.2217879,11.4321212 C52.3336667,11.6001364 52.3712879,11.7303333 52.3712879,11.8051818 C52.3712879,11.8798333 52.2592121,11.9542879 52.0539697,11.9919091 L51.5871515,12.1037879 C51.3817121,12.2158636 51.3817121,12.6828788 51.6243788,12.7575303 C52.6698939,12.7201061 53.6033333,12.701 54.5554848,12.701 C55.4138788,12.701 56.3098939,12.7201061 57.2431364,12.7575303 C57.2433333,12.7575303 57.2435303,12.7573333 57.2435303,12.7573333 C57.9896515,12.7201061 58.7548788,12.701 59.3520909,12.701 C60.0617727,12.701 60.8644242,12.7201061 61.554803,12.7573333 C61.7045,12.6639697 61.7417273,12.2345758 61.5922273,12.1037879 L60.8644242,11.9919091 C60.1175152,11.8613182 60.0062273,11.6186515 60.0062273,10.6848182 C60.0062273,9.56524242 60.0243485,7.69836364 60.0430606,6.4850303 C60.0617727,5.51436364 60.098803,4.78656061 60.1736515,3.57322727 L60.2110758,3.57322727 C61.2565909,6.00009091 63.4778182,10.5359091 64.2060152,12.8505 C64.3175,12.9251515 64.5231364,12.9625758 64.6911515,12.9625758 C64.8406515,12.9625758 64.9712424,12.9066364 65.0644091,12.8315909 C66.2962576,9.67731818 67.7898788,6.55987879 69.1712273,3.57322727 L69.2082576,3.57322727 L69.2082576,5.70109091 L69.2456818,10.5546212 C69.2456818,11.6931061 69.2456818,11.8613182 68.3872879,12.0291364 L67.8271061,12.1037879 C67.6405758,12.2345758 67.6592879,12.6639697 67.8832424,12.7573333 C68.7792576,12.7201061 69.8058636,12.701 70.6457424,12.701 C71.5604697,12.701 72.3633182,12.7201061 73.2217121,12.7573333 C73.4086364,12.6824848 73.4086364,12.2532879 73.2589394,12.1037879 L72.6617273,12.0291364" id="Fill-8" fill="#1A1919" mask="url(#mask-2)"></path>
          <path d="M79.605697,12.1414091 C76.5625152,12.1414091 75.7602576,8.48230303 75.7602576,6.20513636 C75.7602576,3.08809091 76.9917121,0.941121212 79.2881818,0.941121212 C81.6023788,0.941121212 83.0028333,3.536 83.0028333,6.72789394 C83.0028333,9.75177273 82.0506818,12.1414091 79.605697,12.1414091 Z M79.4376818,0.082530303 C75.5359091,0.082530303 72.7734091,2.93859091 72.7734091,6.63472727 C72.7734091,10.5357121 75.4988788,13 79.2511515,13 C83.2642121,13 85.9896818,10.5544242 85.9896818,6.4850303 C85.9896818,2.69592424 83.3199545,0.082530303 79.4376818,0.082530303 Z" id="Fill-9" fill="#1A1919" mask="url(#mask-2)"></path>
          <path d="M92.3173333,5.96266667 C91.9623939,6.31721212 91.5704242,6.48522727 90.8983636,6.48522727 C89.7971061,6.48522727 89.7409697,6.42909091 89.7409697,5.77593939 L89.7409697,2.13574242 C89.7783939,1.23972727 89.7783939,1.18398485 90.5438182,1.18398485 C91.9996212,1.18398485 92.989197,2.2665303 92.989197,3.94648485 C92.989197,5.04774242 92.6346515,5.64534848 92.3173333,5.96266667 Z M107.418212,9.67712121 C106.391606,11.7864697 105.756773,11.842803 104.132955,11.842803 C102.770121,11.842803 102.415379,11.693303 102.172909,11.3572727 C101.948561,11.0401515 101.873909,10.4425455 101.873909,9.58415152 L101.873909,7.3625303 C101.873909,6.80254545 101.892818,6.78383333 102.396864,6.78383333 L103.684848,6.78383333 C104.655318,6.78383333 104.860364,6.93333333 105.066,7.82934848 L105.159364,8.29577273 C105.289955,8.46398485 105.756773,8.44527273 105.850136,8.27745455 C105.812712,7.67984848 105.794,7.00778788 105.794,6.29869697 C105.794,5.58921212 105.812712,4.91754545 105.850136,4.31993939 C105.756773,4.15192424 105.289955,4.15192424 105.159364,4.30142424 L105.066,4.76804545 C104.860364,5.66406061 104.655318,5.79465152 103.684848,5.79465152 L102.396864,5.79465152 C101.892818,5.79465152 101.873909,5.75722727 101.873909,5.2344697 L101.873909,1.96772727 C101.873909,1.27715152 101.873909,1.23972727 102.49003,1.23972727 L103.983455,1.23972727 C104.897985,1.23972727 105.458167,1.46368182 105.812712,1.81842424 C106.055379,2.08 106.316758,2.63959091 106.522197,3.29313636 C106.708727,3.46115152 107.138318,3.42372727 107.212773,3.21828788 C107.119409,1.96772727 106.988818,0.62380303 106.969909,0.32519697 C106.727439,0.362621212 105.663409,0.381136364 104.468788,0.381136364 L100.51147,0.381136364 C99.6154545,0.381136364 98.7007273,0.362621212 97.8234242,0.32519697 C97.636697,0.437075758 97.6177879,0.866469697 97.786,0.978545455 L98.2530152,1.07171212 C99.092697,1.22121212 99.2047727,1.352 99.2047727,3.0504697 L99.2047727,10.0133485 C99.2047727,11.7303333 99.0572424,11.9546818 98.2128333,12.1197424 C97.9571667,12.1697727 97.727697,12.1404242 97.5758333,12.1063485 C97.3095303,12.0405606 96.979803,11.9052424 96.6479091,11.6375606 C95.7518939,10.8719394 94.9866667,9.47187879 93.7544242,6.97056061 C93.6612576,6.76512121 93.6612576,6.65304545 93.8475909,6.56007576 C94.7065758,6.13048485 95.8265455,5.42119697 95.8265455,3.75975758 C95.8265455,2.56513636 95.2663636,1.63209091 94.1840152,0.997257576 C93.4743333,0.568060606 92.1118939,0.32519697 90.525303,0.32519697 C88.7519848,0.32519697 87.2957879,0.400045455 85.8957273,0.493212121 C85.6715758,0.586575758 85.6715758,1.05319697 85.858303,1.14675758 L86.3623485,1.22121212 C87.1464848,1.33309091 87.1839091,1.5385303 87.1839091,3.40501515 L87.1839091,10.0133485 C87.1839091,11.7303333 87.0716364,11.8613182 86.2315606,12.0104242 L85.7277121,12.1039848 C85.578803,12.1971515 85.578803,12.6452576 85.7277121,12.7573333 C86.6981818,12.720303 87.5197424,12.7013939 88.4531818,12.7013939 C89.349197,12.7013939 90.2077879,12.720303 91.1969697,12.7573333 C91.3277576,12.6452576 91.3277576,12.1971515 91.1969697,12.1039848 L90.6931212,12.0104242 C89.8532424,11.8613182 89.7409697,11.7303333 89.7409697,10.0133485 L89.7409697,7.7174697 C89.7409697,7.34401515 89.7783939,7.30678788 90.4317424,7.30678788 C90.8983636,7.30678788 91.1969697,7.45589394 91.4213182,7.95993939 C91.8505152,8.94931818 92.2799091,9.86384848 92.8771212,10.8534242 C93.6984848,12.1971515 94.8143182,12.7732879 96.5315,12.7492576 C96.811,12.7457121 97.1019242,12.7587121 97.3599545,12.7551667 L97.3599545,12.7553636 C98.7604091,12.7175455 99.6899091,12.7013939 100.585924,12.7013939 L103.012788,12.7013939 C104.543242,12.7013939 106.335273,12.720303 107.324652,12.7575303 C107.585833,12.2532879 108.034136,10.7415455 108.109182,9.77068182 C108.034136,9.5465303 107.567712,9.47207576 107.418212,9.67712121 Z" id="Fill-10" fill="#1A1919" mask="url(#mask-2)"></path>
          <path d="M114.417727,5.45842424 L113.185682,4.80527273 C112.252045,4.31993939 111.487015,3.536 111.487015,2.67721212 C111.487015,1.74377273 112.158879,0.941121212 113.390924,0.941121212 C114.735045,0.941121212 115.537894,2.30375758 115.855212,3.25590909 C116.02303,3.44263636 116.489652,3.42392424 116.583015,3.19977273 C116.583015,1.94940909 116.396485,0.941121212 116.247182,0.530636364 C116.02303,0.493015152 115.855212,0.455984848 115.612348,0.381136364 C114.865636,0.156984848 114.100606,0.082530303 113.484682,0.082530303 C110.77753,0.082530303 109.153515,1.5385303 109.153515,3.64827273 C109.172227,5.49584848 110.628424,6.61581818 111.972545,7.28787879 C113.092318,7.84806061 114.511288,8.74387879 114.511288,10.2560152 C114.511288,11.1892576 113.876258,12.1414091 112.494909,12.1414091 C110.908318,12.1414091 109.657561,10.4238333 109.284106,9.21069697 C109.135197,9.00545455 108.705803,9.0239697 108.575015,9.26643939 C108.575015,10.5359091 108.817682,11.8800303 109.172227,12.2905152 C109.564591,12.5144697 110.628424,13 112.345409,13 C115.164636,13 117.049045,11.5063788 117.049045,9.21069697 C117.049045,7.15709091 115.574924,6.07454545 114.417727,5.45842424" id="Fill-11" fill="#1A1919" mask="url(#mask-2)"></path>
        </g>
      </g>
    </g>
  </g>
</svg>
