<?xml version="1.0" encoding="utf-8"?>
<!-- Generator: Adobe Illustrator 23.1.1, SVG Export Plug-In . SVG Version: 6.00 Build 0)  -->
<svg version="1.1" id="Layer_1" xmlns="http://www.w3.org/2000/svg" xmlns:xlink="http://www.w3.org/1999/xlink" x="0px" y="0px"
	 viewBox="0 0 765.35 95" style="enable-background:new 0 0 765.35 95;" xml:space="preserve">
<style type="text/css">
	.st0{fill:#FFFFFF;}
</style>
<g>
	<path class="st0" d="M756.8,9.9c-1.47-1.47-3.25-2.2-5.34-2.2c-2.08,0-3.85,0.73-5.32,2.2c-1.47,1.47-2.2,3.24-2.2,5.32
		c0,2.1,0.73,3.88,2.19,5.35c1.46,1.48,3.24,2.23,5.33,2.23c2.09,0,3.87-0.74,5.34-2.23c1.47-1.48,2.2-3.26,2.2-5.35
		C759.01,13.14,758.27,11.36,756.8,9.9z M756.06,19.85c-1.26,1.27-2.79,1.9-4.6,1.9c-1.81,0-3.34-0.64-4.59-1.9
		c-1.25-1.27-1.88-2.82-1.88-4.62c0-1.79,0.63-3.33,1.88-4.59c1.27-1.27,2.79-1.92,4.59-1.92s3.33,0.64,4.6,1.92
		c1.26,1.27,1.88,2.79,1.88,4.59C757.94,17.03,757.32,18.58,756.06,19.85z"/>
	<path class="st0" d="M754.75,18.8c-0.01-0.22-0.02-0.42-0.02-0.62v-0.61c0-0.42-0.15-0.84-0.45-1.29c-0.3-0.43-0.77-0.7-1.42-0.82
		c0.52-0.09,0.91-0.22,1.2-0.4c0.53-0.35,0.8-0.89,0.8-1.63c0-1.04-0.43-1.74-1.27-2.1c-0.48-0.2-1.24-0.3-2.26-0.3h-2.89v8.28h1.46
		v-3.25h1.15c0.77,0,1.31,0.09,1.62,0.26c0.52,0.31,0.78,0.94,0.78,1.89v0.66l0.02,0.27c0.01,0.04,0.01,0.06,0.02,0.1
		c0,0.02,0.01,0.05,0.02,0.07h1.37l-0.05-0.1C754.78,19.16,754.77,19.03,754.75,18.8z M752.59,14.87c-0.32,0.12-0.78,0.19-1.4,0.19
		h-1.31v-3h1.25c0.82,0,1.4,0.1,1.77,0.31c0.37,0.21,0.56,0.61,0.56,1.21C753.45,14.2,753.16,14.64,752.59,14.87z"/>
	<path class="st0" d="M56.73,43.46c-1.05-0.23-1.64-0.59-1.64-0.94c0-0.59,1.17-1.05,2.35-1.29c3.64-0.94,11.96-4.81,11.96-14.65
		c0-6.91-3.04-11.83-8.09-14.89c-5.16-3.04-12.65-4.34-23.9-4.34c-11.72,0-20.27,0.47-29.18,1.05c-1.76,0.11-1.52,3.64-0.47,4.22
		l3.17,0.47c4.92,0.59,5.16,1.88,5.16,13.71v41.36c0,10.55-0.7,11.36-5.97,12.43l-3.4,0.7c-0.94,0.36-0.94,3.4,0,4.11
		c6.68-0.23,12.41-0.35,18.16-0.35c3.4,0,7.85,0.47,12.07,0.47c7.15,0,15.94-0.35,23.32-2.93c7.38-2.57,13.82-8.9,13.71-19.68
		C73.85,51.54,65.99,45.45,56.73,43.46z M32.25,18.85c0-5.16,0.11-6.1,5.63-6.1c8.09,0,14.42,5.04,14.42,15.23
		c0,7.04-3.75,13.48-13.82,13.48c-6.1,0-6.21-0.23-6.21-3.28V18.85H32.25z M42.56,80.13c-9.14,0-10.31-5.74-10.31-14.89V51.42
		c0-4.69,0-4.81,6.44-4.81c11.25,0,17.11,7.15,17.11,17.35C55.81,73.46,51.23,80.13,42.56,80.13z"/>
	<path class="st0" d="M133.8,65.73c-6.91,13.59-10.19,13.95-20.86,13.95c-8.56,0-10.66-0.94-12.19-2.93
		c-1.52-1.88-1.99-5.63-1.99-11.13V24.59c0-10.89,0.7-11.72,5.97-12.65l3.04-0.47c0.94-0.7,0.94-3.4,0-4.11
		c-5.86,0.23-11.72,0.35-17.35,0.35c-5.63,0-11.49-0.11-17.58-0.35c-1.41,0.7-1.41,3.4-0.23,4.11l3.4,0.47
		c5.27,0.94,5.97,1.76,5.97,12.65v43.59c0,10.89-0.7,11.72-5.97,12.54l-4.45,0.58c-0.94,0.7-0.7,3.4,0.35,4.11
		c7.27-0.23,13.12-0.36,18.51-0.36h15.7c9.61,0,20.86,0.12,27.07,0.36c1.64-3.17,4.45-12.88,5.03-18.98
		C137.44,65.02,134.74,64.55,133.8,65.73z"/>
	<path class="st0" d="M212.19,80.6c-4.34-0.82-5.39-3.4-7.85-10.44L188.4,24.23c-2.93-8.32-4.33-12.66-5.27-16.05
		c-0.47-1.76-1.17-2.35-2.7-2.35c-0.23,0-4.57,5.74-10.2,7.04c0.35,3.4-1.76,7.49-4.57,14.89l-10.55,28.59
		c-3.17,8.43-5.16,14.06-7.27,18.74c-1.88,4.57-4.34,5.5-7.15,5.86l-3.17,0.35c-0.82,0.94-0.94,3.4,0.35,4.11
		c5.39,0,8.09-0.36,12.07-0.36c4.92,0.12,9.61,0.12,13.71,0.36c1.17-0.58,0.94-3.28,0.23-4.11l-3.51-0.58
		c-3.28-0.59-4.22-1.29-4.22-1.99c0-0.94,0.11-1.88,0.82-4.22l4.34-13.59c0.7-2.23,1.05-2.35,3.87-2.35h13.12
		c4.11,0,5.04,0.23,5.63,2.11l3.17,10.08c1.41,4.34,2.23,7.15,2.23,7.96c0,0.7-0.47,1.52-3.17,1.99l-3.75,0.58
		c-1.29,0.94-1.05,3.4,0.23,4.11c5.39-0.23,9.97-0.36,15.81-0.36c6.1,0,12.43,0.12,18.04,0.36c1.05-0.7,0.82-3.51,0.11-4.11
		L212.19,80.6z M177.75,52.36h-10.2c-2.93,0-3.64-0.35-2.46-3.51l2.93-8.79c1.76-5.39,3.64-10.31,4.8-12.88
		c1.05,2.46,2.58,7.27,4.22,12.3l3.04,9.5C181.13,52.01,180.43,52.36,177.75,52.36z"/>
	<path class="st0" d="M276.17,63.38c-3.17,7.98-9.73,18.16-23.9,18.16c-14.06,0-27.54-12.54-27.54-35.86s13.95-34.45,26.96-34.45
		c11.36,0,18.87,5.86,22.03,16.75c0.82,1.05,3.98,0.58,4.45-0.82c-1.05-6.8-1.41-16.17-1.41-18.28c-3.51-0.23-12.19-3.04-24.14-3.04
		c-12.19,0-24.14,3.51-32.46,10.42c-8.09,6.68-14.18,16.75-14.18,31.05c0,14.53,6.44,24.26,14.89,30.7
		c8.32,6.21,20.03,8.9,31.52,8.9c9.14,0,17.46-2.58,23.79-4.34c1.64-2.7,3.64-9.73,4.45-18.4C279.92,62.8,277.11,62.44,276.17,63.38
		z"/>
	<path class="st0" d="M462.13,80.84c-4.57-0.7-5.03-3.4-5.27-8.79c-0.7-14.76-0.94-27.42-0.94-51.56c0-6.21,2.34-7.51,7.15-8.43
		l3.4-0.58c0.94-1.17,0.94-3.4-0.35-4.11c-4.22,0.23-9.61,0.35-13.48,0.35c-3.51,0-7.15,0.11-12.54-0.35
		c-2.57,10.08-5.03,15.58-10.78,27.66l-5.98,12.88c-3.17,6.91-5.04,10.55-6.57,13.35c-1.64-2.93-5.16-9.61-6.33-11.96l-7.74-16.52
		c-5.16-11.02-9.26-18.16-9.26-25.42c-4.22,0.35-7.62,0.35-11.49,0.35c-5.74,0-10.78-0.11-14.76-0.35
		c-1.29,0.35-1.29,3.17-0.35,4.11l2.58,0.47c4.69,1.05,7.27,2.57,7.27,9.26c0,6.33-0.36,15.81-0.82,23.67
		c-0.7,11.13-1.29,21.33-1.88,27.07c-0.7,7.27-2.15,8.35-6.83,9.13c-1.14,0.19-2.92,0.37-5.19-0.06c-2.78-0.53-5.55-1.57-8.72-5.79
		c-7.96-10.55-14.87-21.8-20.74-30.59c-3.51-5.28-4.22-6.68-4.22-7.27c0-0.47,0.35-1.41,1.52-2.7l5.39-6.1
		c7.73-8.56,12.65-13.12,17.35-15c2.46-1.05,5.97-1.64,10.08-2.11c0.94-0.94,0.82-3.64-0.58-4.11c-4.69,0.23-9.84,0.35-14.18,0.35
		c-4.22,0-8.56-0.11-14.53-0.35c-1.52,0.47-1.76,3.28-0.47,4.11l2.7,0.47c1.52,0.35,1.99,1.05,1.99,1.52s-0.47,1.52-1.52,3.04
		c-3.75,5.5-9.5,12.43-15.7,19.92c-1.88,2.35-6.57,6.8-9.03,6.8c-1.41,0-2.11-0.47-2.11-4.34V24.59c0-10.89,0.7-11.72,5.97-12.65
		l3.28-0.47c1.05-0.7,1.05-3.4,0-4.11c-6.21,0.23-12.07,0.35-17.69,0.35c-5.86,0-11.72-0.11-17.57-0.35c-1.29,0.7-1.29,3.4,0,4.11
		l3.28,0.47c5.28,0.94,5.97,1.76,5.97,12.65v43.59c0,10.89-0.7,11.72-5.97,12.65l-3.28,0.47c-0.94,0.7-0.94,3.4,0,4.11
		c6.21-0.23,12.3-0.36,17.57-0.36c5.63,0,11.49,0.12,17.69,0.36c0.94-0.7,0.94-3.28,0-4.11l-3.28-0.47
		c-5.27-0.94-5.97-1.76-5.97-12.65v-12.3c0-6.33,0.11-7.96,2.82-7.96c2.57,0,4.57,2.81,8.79,9.26l6.21,9.5
		c1.17,1.76,6.1,9.37,6.8,10.44c0.7,1.05,0.94,1.87,0.94,2.34s-0.7,0.94-1.99,1.17l-2.93,0.7c-1.29,0.7-1.29,3.64,0.23,4.11
		c6.57-0.23,12.43-0.36,18.4-0.36c5.39,0,11.02,0.12,16.88,0.36l0,0c4.69-0.23,9.48-0.36,13.24-0.36c4.45,0,9.5,0.12,13.82,0.36
		c0.94-0.58,1.17-3.28,0.23-4.11l-4.57-0.7c-4.69-0.82-5.39-2.34-5.39-8.21c0-7.04,0.11-18.74,0.23-26.36
		c0.11-6.1,0.35-10.66,0.82-18.28h0.23c6.57,15.23,20.5,43.71,25.08,58.24c0.7,0.47,1.99,0.7,3.04,0.7c0.94,0,1.76-0.35,2.35-0.82
		c7.73-19.8,17.11-39.37,25.78-58.11h0.23v13.35l0.23,30.47c0,7.15,0,8.2-5.39,9.26l-3.51,0.47c-1.17,0.82-1.05,3.51,0.36,4.11
		c5.63-0.23,12.07-0.36,17.35-0.36c5.74,0,10.78,0.12,16.17,0.36c1.17-0.47,1.17-3.17,0.23-4.11L462.13,80.84z"/>
	<path class="st0" d="M504.67,5.84c-24.49,0-41.83,17.93-41.83,41.14c0,24.49,17.11,39.96,40.67,39.96c25.19,0,42.3-15.36,42.3-40.9
		C545.79,22.25,529.04,5.84,504.67,5.84z M505.72,81.54c-19.1,0-24.14-22.97-24.14-37.27c0-19.57,7.73-33.05,22.15-33.05
		c14.53,0,23.32,16.28,23.32,36.33C527.05,66.54,521.07,81.54,505.72,81.54z"/>
	<path class="st0" d="M680.31,66.07c-6.44,13.24-10.42,13.59-20.62,13.59c-8.56,0-10.78-0.94-12.3-3.04
		c-1.41-1.99-1.88-5.74-1.88-11.13V51.54c0-3.51,0.12-3.64,3.28-3.64h8.09c6.1,0,7.38,0.94,8.67,6.57l0.58,2.93
		c0.82,1.05,3.75,0.94,4.34-0.11c-0.23-3.75-0.36-7.98-0.36-12.43c0-4.45,0.12-8.67,0.36-12.43c-0.58-1.05-3.51-1.05-4.34-0.11
		l-0.58,2.93c-1.29,5.63-2.57,6.44-8.67,6.44h-8.09c-3.17,0-3.28-0.23-3.28-3.51V17.68c0-4.34,0-4.57,3.87-4.57h9.37
		c5.74,0,9.26,1.41,11.49,3.64c1.52,1.64,3.17,5.16,4.45,9.26c1.17,1.05,3.87,0.82,4.34-0.47c-0.58-7.85-1.41-16.28-1.52-18.16
		c-1.52,0.23-8.2,0.35-15.7,0.35h-24.84c-5.63,0-11.36-0.11-16.88-0.35c-1.17,0.7-1.29,3.4-0.23,4.11l2.93,0.58
		c5.27,0.94,5.97,1.76,5.97,12.43v43.71c0,10.78-0.93,12.19-6.23,13.22c-1.61,0.31-3.04,0.14-3.99-0.09
		c-1.67-0.41-3.75-1.26-5.82-2.94c-5.63-4.81-10.42-13.59-18.16-29.29c-0.58-1.29-0.58-1.99,0.58-2.57
		c5.39-2.7,12.43-7.15,12.43-17.58c0-7.49-3.51-13.35-10.31-17.35c-4.45-2.7-13.01-4.22-22.97-4.22c-11.13,0-20.28,0.47-29.06,1.05
		c-1.41,0.58-1.41,3.51-0.23,4.11l3.17,0.47c4.92,0.7,5.16,1.99,5.16,13.71v41.48c0,10.78-0.7,11.6-5.97,12.54l-3.17,0.58
		c-0.94,0.58-0.94,3.4,0,4.11c6.1-0.23,11.25-0.35,17.11-0.35c5.63,0,11.02,0.12,17.22,0.35c0.82-0.7,0.82-3.51,0-4.11l-3.17-0.58
		c-5.27-0.94-5.97-1.76-5.97-12.54V53.77c0-2.35,0.23-2.57,4.34-2.57c2.93,0,4.81,0.94,6.21,4.11c2.7,6.21,5.39,11.96,9.14,18.16
		c5.16,8.43,12.17,12.06,22.94,11.91c1.76-0.02,3.59,0.06,5.21,0.04l0,0c8.79-0.23,14.63-0.33,20.25-0.33h15.23
		c9.61,0,20.86,0.12,27.07,0.36c1.64-3.17,4.45-12.66,4.92-18.74C684.18,65.26,681.25,64.79,680.31,66.07z M585.52,42.75
		c-2.23,2.23-4.69,3.28-8.9,3.28c-6.91,0-7.27-0.36-7.27-4.45V18.73c0.23-5.63,0.23-5.97,5.04-5.97c9.14,0,15.36,6.8,15.36,17.35
		C589.74,37.02,587.51,40.76,585.52,42.75z"/>
	<path class="st0" d="M724.25,39.59l-7.73-4.11c-5.86-3.04-10.66-7.96-10.66-13.35c0-5.86,4.22-10.89,11.96-10.89
		c8.43,0,13.48,8.56,15.47,14.53c1.05,1.17,3.98,1.05,4.57-0.35c0-7.85-1.17-14.18-2.11-16.75c-1.41-0.23-2.46-0.47-3.98-0.94
		c-4.69-1.41-9.5-1.88-13.35-1.88c-16.99,0-27.19,9.14-27.19,22.38c0.11,11.6,9.26,18.63,17.69,22.85
		c7.04,3.51,15.94,9.14,15.94,18.63c0,5.86-3.98,11.83-12.66,11.83c-9.95,0-17.82-10.78-20.15-18.4c-0.94-1.29-3.64-1.17-4.45,0.35
		c0,7.96,1.52,16.41,3.75,18.98c2.46,1.41,9.14,4.45,19.92,4.45c17.69,0,29.53-9.37,29.53-23.79
		C740.77,50.26,731.51,43.46,724.25,39.59z"/>
</g>
</svg>
